<?xml version="1.0" standalone="no"?>
<!DOCTYPE svg PUBLIC "-//W3C//DTD SVG 20010904//EN"
 "http://www.w3.org/TR/2001/REC-SVG-20010904/DTD/svg10.dtd">
<svg version="1.0" xmlns="http://www.w3.org/2000/svg"
 width="261.000000pt" height="261.000000pt" viewBox="0 0 261.000000 261.000000"
 preserveAspectRatio="xMidYMid meet">
<metadata>
Created by potrace 1.11, written by Peter Selinger 2001-2013
</metadata>
<g transform="translate(0.000000,261.000000) scale(0.100000,-0.100000)"
fill="#000000" stroke="none">
<path d="M355 1900 c-2 -3 -3 -271 -3 -597 l0 -591 239 1 238 0 0 594 c0 326
-3 594 -7 594 -24 5 -464 3 -467 -1z"/>
<path d="M1065 1900 c-1 -3 -2 -270 -1 -595 l1 -590 238 -2 237 -1 0 596 0
597 -236 0 c-130 0 -237 -2 -239 -5z"/>
<path d="M1776 1900 c-1 -3 -2 -270 -2 -595 l1 -590 238 -1 238 -1 -3 511 c-3
562 -2 547 -66 612 -58 58 -94 67 -255 69 -82 0 -150 -2 -151 -5z"/>
</g>
</svg>
