<svg id="Layer_1" data-name="Layer 1" xmlns="http://www.w3.org/2000/svg" viewBox="0 0 50 11.61"><defs><style>.cls-1{fill:#4a4a4a;}</style></defs><title>champlain_logo</title><path class="cls-1" d="M50,1.39l-.09.05-.2,0a.2.2,0,0,0-.16.16,2.68,2.68,0,0,0-.06.42c0,.9,0,1.8,0,2.7,0,.17,0,.33,0,.5s0,.09-.09.11-.09,0-.14,0l-1.77-2-.93-1-.1-.09a1.15,1.15,0,0,0,0,.12c0,.6,0,1.2,0,1.79a5.43,5.43,0,0,0,.06.72c0,.2.13.27.35.3H47c.06,0,.09,0,.08.11s0,.06-.1.06H45.73s-.08,0-.09-.06,0-.1.07-.12l.2,0a.21.21,0,0,0,.18-.19,5.47,5.47,0,0,0,.05-.57c0-.76,0-1.52,0-2.29a.47.47,0,0,0-.21-.44,1.55,1.55,0,0,0-.35-.13c-.06,0-.08,0-.08-.1s0-.08.09-.08h1a.08.08,0,0,1,.06,0,5.93,5.93,0,0,0,.73.95C48,2.85,48.51,3.44,49,4l.08.1h0a.51.51,0,0,0,0-.08c0-.56,0-1.12,0-1.67a4,4,0,0,0-.05-.57c0-.24-.13-.32-.38-.35h-.08c-.07,0-.08,0-.08-.1s0-.07.1-.07H49.9a.09.09,0,0,1,.1.06Z"/><path class="cls-1" d="M4.54,11.61l-.32-.09A8.36,8.36,0,0,1,1.3,10,4.46,4.46,0,0,1,.12,8.57,1.83,1.83,0,0,1,0,8.21,1,1,0,0,1,0,8.1V.62l.15,0A11.91,11.91,0,0,1,2.21.14,15.45,15.45,0,0,1,3.86,0H5A18.17,18.17,0,0,1,6.78.15,16,16,0,0,1,9,.58c.13,0,.11,0,.11.15q0,3.67,0,7.34A.84.84,0,0,1,9,8.58,8.1,8.1,0,0,1,6.09,11a8.15,8.15,0,0,1-1.46.6H4.54ZM9,4.44Q9,2.62,9,.8C9,.75,9,.7,8.94.69l-1-.22A14.13,14.13,0,0,0,6.25.22L4.69.13c-.27,0-.54,0-.81,0s-.49,0-.73,0C2.62.23,2.1.29,1.57.37A8.92,8.92,0,0,0,.19.69.08.08,0,0,0,.12.78Q.13,4.4.13,8a1.13,1.13,0,0,0,.13.56,4.41,4.41,0,0,0,.7.94,6.45,6.45,0,0,0,1.52,1.13,8.87,8.87,0,0,0,2,.81.36.36,0,0,0,.21,0,8.72,8.72,0,0,0,1.7-.76A7.84,7.84,0,0,0,8.86,8.5.73.73,0,0,0,9,8.06Q9,6.25,9,4.44Z"/><path class="cls-1" d="M30.73,2.12l-.18.38-1,2.18c-.09.2-.18.4-.26.61a.08.08,0,0,1-.09.05s-.07,0-.09-.05c-.22-.52-.43-1-.66-1.55s-.47-1-.7-1.57l0-.06a.54.54,0,0,0,0,.07c0,.49,0,1,0,1.48,0,.33,0,.67,0,1a1.76,1.76,0,0,0,0,.2.23.23,0,0,0,.21.23l.22,0c.07,0,.05.07.05.12s0,.05-.07.05H26.83c-.06,0-.08,0-.08-.08s0-.1.07-.09h.1a.29.29,0,0,0,.29-.29c0-.28.07-.56.08-.84,0-.48.06-1,.08-1.45,0-.23,0-.45,0-.68a.35.35,0,0,0-.32-.38l-.17,0c-.07,0-.06-.06-.06-.1s0-.07.08-.07H28a.07.07,0,0,1,.05,0,2.77,2.77,0,0,0,.31.92l.92,1.89.05.1.1-.19c.35-.72.71-1.44,1.05-2.17a5.51,5.51,0,0,0,.2-.54.06.06,0,0,1,.07-.05h1c.05,0,.08,0,.08.07s0,.09-.07.1l-.19,0c-.23,0-.3.13-.31.37s0,.57,0,.85q0,.71,0,1.41c0,.24,0,.48,0,.72s.08.25.27.29l.13,0c.07,0,.08,0,.07.1s0,.07-.09.07H30.38c-.05,0-.09,0-.09-.07s0-.1.07-.1l.17,0c.16,0,.2-.09.21-.25s0-.14,0-.21q0-1.21,0-2.42V2.13Z"/><path class="cls-1" d="M21.77,3.29c0,.42,0,.83,0,1.25a2.89,2.89,0,0,0,0,.37.22.22,0,0,0,.22.2l.19,0c.07,0,.06.06.06.1s0,.07-.08.07H20.65a.07.07,0,0,1-.08-.08s0-.09.06-.1l.19,0a.23.23,0,0,0,.22-.2,3.88,3.88,0,0,0,0-.42c0-.31,0-.63,0-.94,0,0,0-.05,0-.08A.11.11,0,0,0,21,3.35H19.12c-.09,0-.13,0-.13.13s0,.19,0,.29q0,.5,0,1a.72.72,0,0,0,0,.13.23.23,0,0,0,.2.2l.24,0c.08,0,.07.06.07.11s0,.07-.09.07l-.76,0-.77,0c-.05,0-.08,0-.08-.07s0-.1.06-.1l.12,0a.26.26,0,0,0,.25-.27,2.19,2.19,0,0,0,0-.24q0-1.34,0-2.69a1.16,1.16,0,0,0,0-.22A.23.23,0,0,0,18,1.46l-.17,0c-.08,0-.06-.06-.06-.11s0-.06.08-.06l.67,0,.82,0c.05,0,.09,0,.09.07s0,.1-.08.11l-.16,0a.23.23,0,0,0-.21.22,3.63,3.63,0,0,0,0,.36c0,.28,0,.55,0,.83s0,.18.17.18H20.9c.14,0,.17,0,.17-.18,0-.36,0-.72,0-1.08a.67.67,0,0,0,0-.14.24.24,0,0,0-.23-.21l-.16,0c-.07,0-.08,0-.08-.1s0-.08.09-.07l.85,0h.64s.08,0,.09.06,0,.1-.07.11l-.18,0a.21.21,0,0,0-.19.19,2.87,2.87,0,0,0,0,.37C21.77,2.45,21.77,2.87,21.77,3.29Z"/><path class="cls-1" d="M17.8,8.37a2.07,2.07,0,0,1,1.93-2.12,2.35,2.35,0,0,1,1.21.18A1.88,1.88,0,0,1,22,7.73a2.15,2.15,0,0,1-.24,1.74,2,2,0,0,1-1.37.91,2.32,2.32,0,0,1-1.54-.21,1.91,1.91,0,0,1-1-1.48s0-.06,0-.09S17.81,8.45,17.8,8.37Zm.81-.17c0,.18,0,.36.06.54a2.2,2.2,0,0,0,.38,1,1.19,1.19,0,0,0,1.59.33,1.25,1.25,0,0,0,.53-.74,3,3,0,0,0,0-1.44,2.08,2.08,0,0,0-.4-.92A1.12,1.12,0,0,0,20,6.47a1.16,1.16,0,0,0-1.16.7A2.59,2.59,0,0,0,18.61,8.19Z"/><path class="cls-1" d="M36.35,6.39l.06.66c0,.08,0,.16,0,.25a.07.07,0,0,1-.07.09c-.05,0-.1,0-.12-.06s0-.11-.05-.17a1,1,0,0,0-.85-.67,1.66,1.66,0,0,0-1,.13,1.39,1.39,0,0,0-.76.93,2.51,2.51,0,0,0,.1,1.74,1.45,1.45,0,0,0,1.24.89,1.42,1.42,0,0,0,.54,0c.15,0,.21-.1.21-.26s0-.49,0-.73a.2.2,0,0,0-.17-.2l-.41-.08c-.07,0-.07-.06-.07-.11s0-.07.09-.07h1.57c.06,0,.1,0,.11.08a.08.08,0,0,1-.09.1h-.06c-.19,0-.25.08-.25.26s0,.49,0,.74a.28.28,0,0,0,.12.23.08.08,0,0,1,0,.06s0,0,0,0l-.68.14a3.42,3.42,0,0,1-1.91-.12,1.85,1.85,0,0,1-1.23-1.58,2,2,0,0,1,1.52-2.28,3.34,3.34,0,0,1,1.46-.09Z"/><path class="cls-1" d="M33.59,3.18c0,.49,0,1,0,1.46a1.66,1.66,0,0,0,0,.26.21.21,0,0,0,.19.19l.29,0c.07,0,.07.05.07.1s0,.08-.08.08l-1,0-.61,0c-.06,0-.09,0-.09-.07s0-.1.07-.1l.15,0a.23.23,0,0,0,.22-.22,2.39,2.39,0,0,0,0-.34q0-1.32,0-2.64a1.25,1.25,0,0,0,0-.17c0-.15-.09-.21-.25-.23l-.16,0c-.06,0-.08,0-.08-.09a.07.07,0,0,1,.08-.09,11.75,11.75,0,0,1,1.6,0,2.14,2.14,0,0,1,.92.21,1.05,1.05,0,0,1,.56,1,1.13,1.13,0,0,1-.92,1,1.81,1.81,0,0,1-.54.06A.07.07,0,0,1,34,3.51c0-.05,0-.08.06-.09a.88.88,0,0,0,.7-.87,1.09,1.09,0,0,0-.13-.64.8.8,0,0,0-.7-.41h-.17c-.13,0-.18,0-.18.18q0,.75,0,1.5Z"/><path class="cls-1" d="M30.61,10.32l-1.49,0c-.05,0-.09,0-.09-.07s0-.1.08-.1l.22,0c.19,0,.26-.09.28-.28s0-.17,0-.26q0-1.32,0-2.64a1.47,1.47,0,0,0,0-.21c0-.18-.1-.25-.28-.27h-.1c-.07,0-.07-.05-.07-.1a.07.07,0,0,1,.08-.07l1.72,0h.93c.06,0,.08,0,.08.07,0,.24.05.48.08.73a.07.07,0,0,1,0,.05.12.12,0,0,1-.18-.05,2.93,2.93,0,0,0-.12-.3.37.37,0,0,0-.29-.21l-.35,0h-.58c-.12,0-.16,0-.17.15a.88.88,0,0,0,0,.11q0,.57,0,1.13c0,.14,0,.16.15.15h.67a.26.26,0,0,0,.29-.24l0-.17a.12.12,0,0,1,.18-.06.09.09,0,0,1,0,.06c0,.38,0,.76,0,1.15,0,0,0,.08-.06.08s-.11,0-.13,0,0-.14,0-.21-.08-.24-.25-.25-.52,0-.78,0a.08.08,0,0,0-.09.09s0,0,0,0c0,.39,0,.77,0,1.16a.67.67,0,0,0,0,.17.28.28,0,0,0,.22.21,3.11,3.11,0,0,0,.78,0l.25,0a.65.65,0,0,0,.47-.34l.12-.23a.1.1,0,0,1,.14-.06.08.08,0,0,1,.06.11l-.21.75s0,.06-.09.06H30.61Z"/><path class="cls-1" d="M38.56,10.32l-1.48,0c-.06,0-.09,0-.1-.07s0-.1.08-.1l.22,0c.19,0,.26-.09.28-.28s0-.19,0-.29q0-1.3,0-2.6a1.38,1.38,0,0,0,0-.24c0-.17-.09-.22-.26-.24h-.1c-.07,0-.08-.05-.07-.1s0-.07.09-.07h2.65s.06,0,.06.05l.08.75a.06.06,0,0,1,0,0,.12.12,0,0,1-.19-.05l-.08-.22a.44.44,0,0,0-.4-.3l-.48,0h-.41c-.1,0-.13,0-.15.13a.73.73,0,0,0,0,.12q0,.58,0,1.15c0,.13,0,.15.15.15h.68a.26.26,0,0,0,.28-.23l0-.19c0-.05.07-.08.13-.07s.06,0,.06.09q0,.56,0,1.12s0,.08-.06.09-.12,0-.13-.07l0-.2a.25.25,0,0,0-.27-.25h-.73c-.09,0-.11,0-.11.12q0,.58,0,1.17a.73.73,0,0,0,0,.16.28.28,0,0,0,.23.22,3.11,3.11,0,0,0,.78,0l.28,0a.71.71,0,0,0,.5-.44l.06-.12a.11.11,0,0,1,.18,0,.08.08,0,0,1,0,.07l-.22.77s0,.06-.09.06H38.56Z"/><path class="cls-1" d="M39.64,5.29h-.56c-.05,0-.08,0-.09-.06s0-.1.07-.11l.13,0a.37.37,0,0,0,.32-.24c.07-.17.15-.34.21-.51l1-2.6a2,2,0,0,0,.05-.23s0,0,0,0a.91.91,0,0,0,.34-.24c.07-.07.13-.06.16,0,.09.26.17.53.26.79l.91,2.66v0a.46.46,0,0,0,.44.36c.11,0,.11,0,.12.11s0,.07-.08.07l-.76,0-.65,0s-.07,0-.08,0a.24.24,0,0,1,0-.11l0,0,.18,0c.11,0,.15-.08.12-.19s-.1-.3-.15-.45l-.18-.51c0-.13-.07-.15-.21-.15h-.9c-.06,0-.1,0-.12.07-.11.34-.23.69-.34,1,0,.12,0,.16.11.18l.22,0c.06,0,.06.06.05.1s0,.07-.08.07h-.58Zm1.24-3.15,0,.06L40.4,3.41c0,.09,0,.11.08.11h.71c.14,0,.15,0,.11-.16v0l-.35-1Z"/><path class="cls-1" d="M24.29,1.47a.88.88,0,0,0,.35-.24c.07-.07.13-.06.16,0s.14.45.22.67l1,2.79v0a.46.46,0,0,0,.44.36c.11,0,.11,0,.12.11s0,.07-.08.07l-.77,0-.64,0A.09.09,0,0,1,25,5.15l0,0,.18,0c.11,0,.15-.08.12-.19s-.09-.28-.14-.41L25,3.93c0-.12-.07-.14-.2-.14h-.91c-.06,0-.1,0-.12.07-.11.34-.23.69-.34,1,0,.12,0,.16.12.18l.21,0c.06,0,.06.06.06.1s0,.07-.08.07H22.56s-.07,0-.07-.06,0-.09.05-.11l.14,0A.38.38,0,0,0,23,4.84c.12-.3.24-.6.36-.9l.84-2.2A2.82,2.82,0,0,0,24.29,1.47Zm.08.67,0,.06L23.9,3.41c0,.09,0,.11.08.11h.69c.16,0,.18,0,.12-.18l-.37-1.07Z"/><path class="cls-1" d="M14.51,8.27a2.27,2.27,0,0,0,.26,1.1,1.49,1.49,0,0,0,1.13.8,1.28,1.28,0,0,0,1.41-.75l.05-.11c0-.06.07-.07.13-.06s.07.06.06.11a2.42,2.42,0,0,1-.25.81.13.13,0,0,1-.07.06,3.88,3.88,0,0,1-.95.19,2.83,2.83,0,0,1-1.64-.35,1.84,1.84,0,0,1-.91-1.38,2.11,2.11,0,0,1,.22-1.32,2,2,0,0,1,1.16-1,2.92,2.92,0,0,1,1.32-.16c.29,0,.59.09.88.14a.08.08,0,0,1,0,.05c0,.29.05.58.08.87,0,.05,0,.06-.06.06s-.1,0-.13,0l0-.13a1.06,1.06,0,0,0-.94-.72,1.46,1.46,0,0,0-1.4.58,1.74,1.74,0,0,0-.33.88C14.52,8.05,14.52,8.16,14.51,8.27Z"/><path class="cls-1" d="M14.5,3.22a2.26,2.26,0,0,0,.3,1.15,1.48,1.48,0,0,0,1.4.76,1.22,1.22,0,0,0,1-.61,2.33,2.33,0,0,0,.14-.26c0-.06.08-.06.13-.05s.06.05.06.1a2.43,2.43,0,0,1-.25.81.13.13,0,0,1-.08.06,6.62,6.62,0,0,1-.75.16,2.72,2.72,0,0,1-2-.48,1.8,1.8,0,0,1-.7-1.22A2.1,2.1,0,0,1,14,2.24a2.06,2.06,0,0,1,1.21-.91,3,3,0,0,1,1.35-.12l.75.13s.05,0,.06.06c0,.29.05.58.08.87,0,.05,0,.06-.06.06s-.1,0-.13,0A2.28,2.28,0,0,0,17.13,2a1.05,1.05,0,0,0-.91-.58A1.48,1.48,0,0,0,15,1.81a1.62,1.62,0,0,0-.5,1C14.52,2.93,14.52,3.08,14.5,3.22Z"/><path class="cls-1" d="M27.18,10.32l-1.42,0c-.06,0-.09,0-.09-.08s0-.09.07-.1l.19,0c.2,0,.26-.1.28-.3s0-.17,0-.26q0-1.29,0-2.58a1.74,1.74,0,0,0,0-.29A.21.21,0,0,0,26,6.53l-.25,0c-.08,0-.06-.06-.06-.11s0-.07.08-.07l.86,0,.7,0c.06,0,.09,0,.09.08s0,.09-.07.1l-.21,0a.22.22,0,0,0-.19.2,2.07,2.07,0,0,0,0,.3q0,1.25,0,2.5a1.38,1.38,0,0,0,0,.21.33.33,0,0,0,.35.33,3.37,3.37,0,0,0,.87,0,.5.5,0,0,0,.37-.24c.07-.11.13-.23.19-.35a.11.11,0,0,1,.15-.05c.06,0,.05.06,0,.11l-.2.72c0,.06,0,.08-.11.08h-1.4Z"/><path class="cls-1" d="M23.78,10.32l-1.41,0c-.06,0-.09,0-.1-.08s0-.09.08-.09l.26,0a.2.2,0,0,0,.18-.18,4,4,0,0,0,0-.47q0-1.14,0-2.28a3.7,3.7,0,0,0,0-.41c0-.19-.09-.25-.27-.27l-.17,0c-.07,0-.07,0-.07-.1s0-.08.09-.08l.76,0,.8,0s.08,0,.08.06,0,.11-.06.12l-.2,0a.23.23,0,0,0-.2.2,2.53,2.53,0,0,0,0,.34q0,1.19,0,2.38a2.58,2.58,0,0,0,0,.29.32.32,0,0,0,.31.32,3.27,3.27,0,0,0,.91,0,.48.48,0,0,0,.36-.23c.07-.11.13-.23.19-.34a.12.12,0,0,1,.18,0,.08.08,0,0,1,0,.07l-.22.76a.08.08,0,0,1-.09.06H23.78Z"/><path class="cls-1" d="M37.48,5.28H36.42l-.64,0c-.06,0-.08,0-.09-.07s0-.09.06-.1l.26,0a.23.23,0,0,0,.2-.22,2.38,2.38,0,0,0,0-.3q0-1.28,0-2.55a2.15,2.15,0,0,0,0-.3A.23.23,0,0,0,36,1.47l-.21,0c-.07,0-.08,0-.07-.1s0-.07.09-.07l.78,0h.77c.05,0,.1,0,.1.07s0,.09-.09.11l-.15,0a.25.25,0,0,0-.24.27c0,.15,0,.29,0,.44q0,1,0,2.07c0,.14,0,.28,0,.42a.33.33,0,0,0,.32.35,3.32,3.32,0,0,0,.91,0,.48.48,0,0,0,.35-.23c.07-.11.13-.23.19-.35a.12.12,0,0,1,.18,0,.08.08,0,0,1,0,.07l-.22.77s0,.05-.08.05H37.48Z"/><path class="cls-1" d="M44.53,3.29c0,.38,0,.76,0,1.15,0,.15,0,.31,0,.46a.22.22,0,0,0,.21.2l.19,0c.07,0,.06.06.06.1s0,.07-.08.07H43.42a.07.07,0,0,1-.08-.07s0-.09.06-.1l.19,0a.23.23,0,0,0,.22-.21,2,2,0,0,0,0-.34q0-1.27,0-2.54a2.41,2.41,0,0,0,0-.31.24.24,0,0,0-.24-.24l-.16,0c-.07,0-.08,0-.07-.1s0-.07.09-.07h1.52s.08,0,.09.06,0,.1-.07.11l-.21,0a.21.21,0,0,0-.18.19,4.3,4.3,0,0,0,0,.47C44.53,2.51,44.53,2.9,44.53,3.29Z"/><path class="cls-1" d="M8.39,8.68c-.19.2-.37.41-.57.6a8.63,8.63,0,0,1-3,1.84.91.91,0,0,1-.65,0A8.22,8.22,0,0,1,1.53,9.69l-.33-.3-.05-.06c.24-.06.47-.14.71-.18a1.19,1.19,0,0,1,1,.28L3,9.5l.06,0a1.24,1.24,0,0,1,1.2-.28l.5.14a1.14,1.14,0,0,0,.52,0s.1-.05.09-.07-.07,0-.11,0A1.85,1.85,0,0,1,4.53,9a2.11,2.11,0,0,0-.59-.15A1.2,1.2,0,0,0,3,9.2L3,9.26A4.81,4.81,0,0,0,2.54,9,1.23,1.23,0,0,0,1.6,9L1,9.15a.07.07,0,0,1-.06,0L.75,8.88h.1a1.3,1.3,0,0,0,.61-.08,1.54,1.54,0,0,1,.91-.08A1.28,1.28,0,0,1,2.86,9l.1.08L3,9a1.25,1.25,0,0,1,1.22-.29l.42.12a1.26,1.26,0,0,0,.57,0s.11,0,.11-.08-.07,0-.11,0a2.36,2.36,0,0,1-.84-.19,1.31,1.31,0,0,0-.91,0A1.48,1.48,0,0,0,3,8.82c-.12-.08-.22-.17-.34-.24a1.21,1.21,0,0,0-1-.07c-.2.06-.4.14-.6.19a1.8,1.8,0,0,1-.33,0l0,0a1.53,1.53,0,0,1-.27-.53,1.5,1.5,0,0,1,0-.26q0-1.51,0-3s0,0,0-.08l.43,0a8.35,8.35,0,0,1,3.88.83A10.21,10.21,0,0,1,7.23,7.42a11.82,11.82,0,0,1,1.11,1.2ZM2,7.07l-.18.1a.41.41,0,0,0,0,.69.6.6,0,0,0,.66,0,.43.43,0,0,0,.18-.47.48.48,0,0,0-.24-.27L2.26,7a2.15,2.15,0,0,0,.22-.16.27.27,0,0,0,0-.38.49.49,0,0,0-.68-.06.33.33,0,0,0,0,.5Zm2.32,0-.2.13a.4.4,0,0,0,0,.63.59.59,0,0,0,.74,0,.41.41,0,0,0,0-.66l-.18-.11,0,0,.19-.13a.29.29,0,0,0,0-.45.5.5,0,0,0-.6-.07.34.34,0,0,0-.06.56ZM3.62,7,3.6,7l-.26.54L3,8.24c0,.07,0,.12,0,.15s.1,0,.13-.07v0l.56-1.41a.6.6,0,0,0,0-.11H3.17c-.11,0-.14,0-.16-.15s0,0,0,0,0,0,0,0,0,.26-.07.39l0,.2c.06,0,.06,0,.07,0S3,7,3.08,7ZM1.07,6.79H.78s0,0,0,0l0,0c.15,0,.19.05.19.2s0,.37,0,.56,0,.25-.21.25l0,0,0,0h.58s0,0,.07,0l-.06,0c-.13,0-.17,0-.18-.17s0-.44,0-.67,0-.16.19-.17l.05,0-.05,0Z"/><path class="cls-1" d="M8.75,8.12A10.86,10.86,0,0,0,.37,3.28s0,0,0-.07Q.36,2.12.36,1A.09.09,0,0,1,.43.93,10.42,10.42,0,0,1,2,.57,15.35,15.35,0,0,1,4,.39c.52,0,1,0,1.56,0a15.76,15.76,0,0,1,2,.25c.39.07.77.17,1.15.26.06,0,.08,0,.08.1q0,3.45,0,6.91C8.77,8,8.76,8,8.75,8.12ZM8.29,2.84c0-.48,0-.94,0-1.41,0,0,0,0,0-.05l-.07,0A13.07,13.07,0,0,0,4.94.83,12.18,12.18,0,0,0,2.37,1a8.62,8.62,0,0,0-1.45.37.09.09,0,0,0-.07.11c0,.4,0,.8,0,1.2,0,0,0,0,0,.09a1.6,1.6,0,0,1,.72-.28A1.61,1.61,0,0,0,2,2.34a1.78,1.78,0,0,1,.72-.25,1.1,1.1,0,0,1,.67.08l.08,0,1.12.26.33.1a15,15,0,0,1-1.87.72h.06a7.69,7.69,0,0,0,1.42-.39c.28-.11.56-.21.85-.29s.58-.15.88-.21a1.12,1.12,0,0,1,.86.13,1.26,1.26,0,0,0,.52.17A1.35,1.35,0,0,1,8.29,2.84Z"/><path class="cls-1" d="M1.83,7.56A.46.46,0,0,1,2,7.14a.08.08,0,0,1,.06,0,.78.78,0,0,1,.29.23.33.33,0,0,1,0,.41.32.32,0,0,1-.4,0A.3.3,0,0,1,1.83,7.56Z"/><path class="cls-1" d="M2.36,6.68A.36.36,0,0,1,2.2,7L2.15,7a.35.35,0,0,1-.22-.39.21.21,0,0,1,.26-.16C2.29,6.45,2.36,6.54,2.36,6.68Z"/><path class="cls-1" d="M4.15,7.54a.43.43,0,0,1,.21-.39.09.09,0,0,1,.09,0,1.49,1.49,0,0,1,.25.19.31.31,0,0,1-.41.47A.31.31,0,0,1,4.15,7.54Z"/><path class="cls-1" d="M4.46,6.43a.21.21,0,0,1,.22.25A.36.36,0,0,1,4.51,7h0a.34.34,0,0,1-.22-.38A.2.2,0,0,1,4.46,6.43Z"/></svg>