<?xml version="1.0" encoding="UTF-8"?>
<svg width="451px" height="153px" viewBox="0 0 451 153" version="1.1" xmlns="http://www.w3.org/2000/svg" xmlns:xlink="http://www.w3.org/1999/xlink">
    <!-- Generator: Sketch 47.1 (45422) - http://www.bohemiancoding.com/sketch -->
    <title>Healine</title>
    <desc>Created with Sketch.</desc>
    <defs></defs>
    <g id="Homepage" stroke="none" stroke-width="1" fill="none" fill-rule="evenodd">
        <g id="Desktop-HD" transform="translate(-486.000000, -406.000000)" fill="#FFFFFF">
            <g id="Header" transform="translate(-51.000000, 101.000000)">
                <g id="Healine" transform="translate(537.000000, 305.000000)">
                    <path d="M0.637000668,52 L15.1810007,52 L15.1810007,21.616 L26.7010007,52 L32.1730007,52 L43.9090007,21.616 L43.9090007,52 L60.1090007,52 L60.1090007,0.52 L39.3730007,0.52 L30.5170007,25.504 L21.8050007,0.52 L0.637000668,0.52 L0.637000668,52 Z M74.6370007,52 L90.8370007,0.52 L111.933001,0.52 L128.061001,52 L110.781001,52 L108.405001,43.432 L92.1330007,43.432 L89.8290007,52 L74.6370007,52 Z M100.749001,13.52 L95.6370007,32.168 L105.789001,32.168 L100.749001,13.52 Z M143.637001,52 L159.981001,52 L159.981001,31.408 L173.373001,52 L192.165001,52 L173.085001,24.28 L191.157001,0.52 L174.237001,0.52 L159.981001,20.032 L159.981001,0.52 L143.637001,0.52 L143.637001,52 Z M206.637001,52 L244.365001,52 L244.365001,39.472 L222.909001,39.472 L222.909001,31.768 L239.037001,31.768 L239.037001,20.32 L222.909001,20.32 L222.909001,13.048 L243.213001,13.048 L243.213001,0.52 L206.637001,0.52 L206.637001,52 Z M283.637001,52 L300.125001,52 L300.125001,0.52 L283.637001,0.52 L283.637001,52 Z M328.597001,52 L345.013001,52 L345.013001,13.048 L358.045001,13.048 L358.045001,0.52 L315.637001,0.52 L315.637001,13.048 L328.597001,13.048 L328.597001,52 Z M102.599,139 L117.143,139 L117.143,108.616 L128.663,139 L134.135,139 L145.871,108.616 L145.871,139 L162.071,139 L162.071,87.52 L141.335,87.52 L132.479,112.504 L123.767,87.52 L102.599,87.52 L102.599,139 Z M176.993,139 L193.193,87.52 L214.289,87.52 L230.417,139 L213.137,139 L210.761,130.432 L194.489,130.432 L192.185,139 L176.993,139 Z M202.697,100.696 L197.585,119.344 L207.737,119.344 L202.697,100.696 Z M250.234999,139 L266.650999,139 L266.650999,100.048 L279.682999,100.048 L279.682999,87.52 L237.274999,87.52 L237.274999,100.048 L250.234999,100.048 L250.234999,139 Z M305.692999,139 L322.108999,139 L322.108999,100.048 L335.140999,100.048 L335.140999,87.52 L292.732999,87.52 L292.732999,100.048 L305.692999,100.048 L305.692999,139 Z M350.710999,139 L388.438999,139 L388.438999,126.472 L366.982999,126.472 L366.982999,118.768 L383.110999,118.768 L383.110999,107.32 L366.982999,107.32 L366.982999,100.048 L387.286999,100.048 L387.286999,87.52 L350.710999,87.52 L350.710999,139 Z M404.800999,139 L404.800999,87.52 L425.824999,87.52 C440.008999,87.52 447.352999,93.208 447.352999,104.224 L447.352999,104.512 C447.352999,111.64 443.752999,115.672 438.640999,117.976 L450.376999,139 L433.240999,139 L423.664999,121.36 L421.072999,121.36 L421.072999,139 L404.800999,139 Z M421.072999,110.848 L424.888999,110.848 C429.424999,110.848 431.584999,108.976 431.584999,105.232 L431.584999,104.944 C431.584999,101.2 429.352999,99.76 424.960999,99.76 L421.072999,99.76 L421.072999,110.848 Z" id="MAKE-IT-MATTER"></path>
                    <rect id="Rectangle" x="74" y="74" width="10" height="79"></rect>
                </g>
            </g>
        </g>
    </g>
</svg>