<svg id="Layer_1" data-name="Layer 1" xmlns="http://www.w3.org/2000/svg" viewBox="0 0 50 31.06"><defs><style>.cls-1{fill:#4a4a4a;}</style></defs><title>hotel_vt_logo</title><path class="cls-1" d="M50,31.06H0V0H50ZM30.62.45H.45V30.61H30.62ZM49.54,18.9V.45H31.08V18.9Zm-11.24.46V30.61H49.54V19.36Zm-.46,0H31.22c-.12,0-.15,0-.15.16q0,5.48,0,11s0,.1,0,.14h6.76Z"/><path class="cls-1" d="M12.5,25.91l0,2.85H12a.61.61,0,0,1,0-.08q.07-2,.15-3.94a.66.66,0,0,1,0-.15.67.67,0,0,1,.12.12l1.62,2.81.09.15.08-.14,1.58-2.82a.32.32,0,0,1,0-.07l.08-.06a.27.27,0,0,1,0,.09c0,.14,0,.28,0,.42L16,28.68s0,0,0,.07h-.44l-.06-2.88L15.4,26,14.1,28.23c-.09.15-.1.15-.19,0L12.6,26l-.08-.12Z"/><path class="cls-1" d="M5.79,21.6a2.08,2.08,0,0,1,1.92-2.13,2,2,0,0,1,2.17,1.92,2.11,2.11,0,0,1-1.23,2.15A2,2,0,0,1,5.79,21.6Zm1.89-1.73a1.39,1.39,0,0,0-1.13.72,1.87,1.87,0,0,0-.09,1.83,1.44,1.44,0,0,0,1.41.89,1.46,1.46,0,0,0,1.37-.94,2,2,0,0,0,.14-1.07A1.61,1.61,0,0,0,7.68,19.87Z"/><path class="cls-1" d="M20.47,26.69a2.07,2.07,0,0,1-2,2.14,1.91,1.91,0,0,1-1.58-.64,2.18,2.18,0,0,1,.66-3.42,2,2,0,0,1,2.87,1.7Zm-1.91,1.74a1.37,1.37,0,0,0,1.12-.67,1.87,1.87,0,0,0,.12-1.9A1.43,1.43,0,0,0,18.44,25a1.46,1.46,0,0,0-1.38.85A2,2,0,0,0,16.88,27,1.61,1.61,0,0,0,18.56,28.44Z"/><path class="cls-1" d="M21.35,28.76h-.44s0-.1,0-.15q0-1.94,0-3.87a.61.61,0,0,1,0-.15.54.54,0,0,1,.13.08l2.45,2.92.1.11V24.66h.44v4.17l0,0-2.67-3.2Z"/><path class="cls-1" d="M10.47,27.05l1.19,1.71h-.5s-.08-.06-.1-.1l-1-1.41a.19.19,0,0,0-.19-.1H9.28v1.61H8.83s0-.09,0-.14c0-1.26,0-2.52,0-3.77,0-.12,0-.16.15-.17a4.41,4.41,0,0,1,1.34,0,1.18,1.18,0,0,1,1,.86A1.2,1.2,0,0,1,10.59,27Zm-1.19-2c0,.54,0,1.08,0,1.61a.11.11,0,0,0,.08.07,5.45,5.45,0,0,0,.89,0,.75.75,0,0,0,.63-.78.81.81,0,0,0-.6-.83A2.34,2.34,0,0,0,9.28,25.07Z"/><path class="cls-1" d="M5.35,23.64H4.92V21.77H2.72v1.86H2.28V19.55h.43v1.8h2.2v-1.8h.44Z"/><path class="cls-1" d="M13.35,23.63V19.55h2.39v.39H13.79v1.42h1.74v.4H13.79v1.48h1.94v.39Z"/><path class="cls-1" d="M5.95,28.75V24.66H8.34v.39H6.4v1.42H8.14v.39H6.53c-.11,0-.14,0-.14.14,0,.41,0,.81,0,1.22,0,.11,0,.13.13.13H8.34v.39Z"/><path class="cls-1" d="M1.85,24.66h.5l1.38,3.25.57-1.37c.25-.59.5-1.18.74-1.78a.15.15,0,0,1,.17-.11h.35l-.05.15L3.8,28.72a.64.64,0,0,1-.08.11.63.63,0,0,1-.08-.11L1.9,24.78Z"/><path class="cls-1" d="M27.73,25.06H26.37v3.69h-.44v-3.7H24.67c-.09,0-.13,0-.12-.12s0-.18,0-.28h3.18Z"/><path class="cls-1" d="M9.67,19.93v-.39h3.17v.38H11.5v3.7H11v-3.7Z"/><path class="cls-1" d="M16.34,23.63V19.54h.44v3.7h2v.39Z"/></svg>