<svg id="Layer_1" data-name="Layer 1" xmlns="http://www.w3.org/2000/svg" viewBox="0 0 50 14.85"><defs><style>.cls-1{fill:#4a4a4a;}</style></defs><title>keurig_logo</title><path class="cls-1" d="M50,8.35a12.45,12.45,0,0,1-3.83.43,4.93,4.93,0,0,1-1.38-.24,2.15,2.15,0,0,1-1.59-2.13q0-2,0-4A2.19,2.19,0,0,1,45.11.16C45.4.1,45.69.08,46,0l.17,0h1.28l.1,0c.4,0,.81.06,1.21.11s.67.1,1,.16l-.19,1.82c-.46-.05-.91-.12-1.36-.15-.61,0-1.22-.08-1.82-.07s-1,.31-1,.92c0,1.08,0,2.16,0,3.23a.8.8,0,0,0,.72.84,4.59,4.59,0,0,0,1.35,0L48,6.82V4.44h2Z"/><path class="cls-1" d="M50,14.82a.71.71,0,0,1-.19-.09L47.91,13l-.15-.12c0,.08,0,.14,0,.19,0,.51,0,1,0,1.52,0,.13,0,.16-.16.16h-.53c-.08,0-.12,0-.11-.11s0-.06,0-.09c0-1.12,0-2.25,0-3.42a.82.82,0,0,1,.19.09L49,12.92l.18.15c0-.09,0-.15,0-.2,0-.49,0-1,0-1.47,0-.13,0-.19.17-.18H50Z"/><path class="cls-1" d="M0,12.82a3.79,3.79,0,0,1,.17-.6,1.8,1.8,0,0,1,1.78-1.06,2.16,2.16,0,0,1,1.15.31l-.3.58a6.68,6.68,0,0,0-.88-.14,1,1,0,0,0-1,.78A1.13,1.13,0,0,0,1.45,14a1.25,1.25,0,0,0,.88.06.16.16,0,0,0,.13-.18c0-.13,0-.27,0-.42H1.75c0-.21,0-.41,0-.6,0,0,.07-.08.11-.08H3.11a.15.15,0,0,1,.1.11c0,.49,0,1,0,1.48a.17.17,0,0,1-.07.12A2.24,2.24,0,0,1,.5,14.26a1.75,1.75,0,0,1-.46-1,.77.77,0,0,0,0-.12Z"/><path class="cls-1" d="M1.53,0l.19.06A1.33,1.33,0,1,1,0,1.63s0-.07,0-.1V1.13L0,1A1.32,1.32,0,0,1,.88.08L1.13,0Z"/><path class="cls-1" d="M0,4.19l0-.12a1.33,1.33,0,1,1,0,.64L0,4.6Z"/><path class="cls-1" d="M0,7.25a1.69,1.69,0,0,1,.35-.7A1.33,1.33,0,1,1,0,7.76s0-.07,0-.1Z"/><path class="cls-1" d="M28.46,8.62V.17h4.25A4.23,4.23,0,0,1,34.11.4a1.82,1.82,0,0,1,1.31,1.68,18.82,18.82,0,0,1,0,2.22,1.75,1.75,0,0,1-.88,1.4l-.15.1,1.7,2.82h-2.3a.2.2,0,0,1-.21-.12L32.37,6.37a.25.25,0,0,0-.26-.15h-1.3c-.15,0-.21,0-.2.2,0,.67,0,1.33,0,2v.19ZM30.63,4.5c.67,0,1.33,0,2,0,.49,0,.71-.27.72-.76s0-.73,0-1.09a.63.63,0,0,0-.68-.7c-.64,0-1.28,0-1.92,0-.12,0-.12.07-.12.15q0,1.15,0,2.3S30.63,4.44,30.63,4.5Z"/><path class="cls-1" d="M23.55.17h2.18v.2q0,2.84,0,5.69a2.4,2.4,0,0,1-1.81,2.48,6.35,6.35,0,0,1-2.38.23,4.36,4.36,0,0,1-1.72-.42,2.28,2.28,0,0,1-1.33-2.16c0-1.94,0-3.88,0-5.81V.17h2.18V.35q0,2.74,0,5.49a.91.91,0,0,0,.86,1,3.13,3.13,0,0,0,1.26,0,.9.9,0,0,0,.77-1q0-2.75,0-5.5Z"/><path class="cls-1" d="M12.23,5.2V6.87H16V8.62h-6V.17h6V1.91H12.41c-.15,0-.2,0-.19.19,0,.44,0,.87,0,1.33h3.52V5.2Z"/><path class="cls-1" d="M8,.16,7.27,1.34,5.51,4.23a.26.26,0,0,0,0,.32L7.88,8.47,8,8.62H5.67a.21.21,0,0,1-.21-.12l-2.33-4a.24.24,0,0,1,0-.28L5.44.31A.25.25,0,0,1,5.7.16Z"/><path class="cls-1" d="M38.37,8.61V.17h2.16V8.61Z"/><path class="cls-1" d="M26.73,14.82A1.72,1.72,0,0,1,24.93,13a1.75,1.75,0,0,1,1.83-1.83A1.73,1.73,0,0,1,28.57,13,1.75,1.75,0,0,1,26.73,14.82Zm0-.71a.85.85,0,0,0,.75-.44,1.29,1.29,0,0,0,0-1.37.9.9,0,0,0-1.42-.16,1.3,1.3,0,0,0,0,1.7A.91.91,0,0,0,26.77,14.11Z"/><path class="cls-1" d="M22.08,13.23,23,12l.58-.75a1.12,1.12,0,0,1,.16-.13c0,.17,0,.29,0,.41,0,1,.09,2,.14,3,0,.14,0,.19-.17.18H23.3c-.11,0-.15,0-.15-.15,0-.47,0-.95,0-1.42,0,0,0-.09,0-.17l-.13.15-.78,1c-.1.13-.13.13-.24,0l-.8-1L21,13c0,.1,0,.15,0,.2,0,.47,0,.94,0,1.4,0,.11,0,.15-.14.14h-.48c-.12,0-.15,0-.14-.16,0-.29,0-.58,0-.87q.06-1.23.12-2.46s0,0,0-.11a1.13,1.13,0,0,1,.18.14L21.91,13Z"/><path class="cls-1" d="M15.44,12.94q0,.08,0,.16c0,.5,0,1,0,1.5,0,.13,0,.16-.16.16h-.52c-.09,0-.13,0-.13-.12,0-1.12,0-2.24,0-3.36a.4.4,0,0,1,0-.11.51.51,0,0,1,.15.06l1.82,1.64.21.19c0-.08,0-.13,0-.19,0-.5,0-1,0-1.5,0-.12,0-.16.15-.15a3.82,3.82,0,0,0,.47,0c.15,0,.2,0,.2.19,0,.83,0,1.66,0,2.49,0,.25,0,.5,0,.75,0,.05,0,.11,0,.16l0,0-1.07-1-1.06-1Z"/><path class="cls-1" d="M35.94,13.07c0-.57,0-1.09,0-1.61,0-.24,0-.23.24-.23h.41c.12,0,.16,0,.16.16,0,.46,0,.92,0,1.38v2.1l-.19-.14L34.66,13l-.14-.12v1.83l-.14,0h-.52c-.13,0-.16,0-.16-.16,0-1.09,0-2.19,0-3.28a.6.6,0,0,1,0-.15.57.57,0,0,1,.14.07l1.8,1.62Z"/><path class="cls-1" d="M6.25,13.4l.41.67.41.68H6.19s-.07-.07-.1-.11c-.15-.29-.32-.58-.45-.87a.27.27,0,0,0-.3-.18c-.28,0-.25,0-.25.25s0,.52,0,.78c0,.1,0,.14-.13.14H4.41c-.09,0-.13,0-.13-.13q0-1.63,0-3.27c0-.07,0-.14.1-.14.48,0,1,0,1.43,0a1.09,1.09,0,0,1,1,.86,1.17,1.17,0,0,1-.48,1.22Zm-1.16-1c0,.14,0,.27,0,.41s.06.11.08.11a2.31,2.31,0,0,0,.58-.09A.47.47,0,0,0,6,12.31a.44.44,0,0,0-.36-.36,2.33,2.33,0,0,0-.42,0c-.11,0-.16.05-.15.17S5.09,12.31,5.09,12.43Z"/><path class="cls-1" d="M29.59,12.46c0-.36,0-.73,0-1.09,0-.11,0-.15.14-.14h.48c.13,0,.18,0,.18.17,0,.64,0,1.27,0,1.91a1.22,1.22,0,0,0,0,.25.68.68,0,0,0,1.33,0,1.81,1.81,0,0,0,0-.31c0-.61,0-1.22,0-1.83,0-.12,0-.17.16-.16h.52c.09,0,.13,0,.13.12,0,.73,0,1.46,0,2.19a1.29,1.29,0,0,1-1.31,1.28,3,3,0,0,1-.7,0,1.22,1.22,0,0,1-1-1.21c0-.36,0-.73,0-1.09Z"/><path class="cls-1" d="M12.07,12.61h1.29v.7h-.82l-.44,0c0,.21,0,.41,0,.62,0,0,.09.07.14.07H13.3c.15,0,.22,0,.2.2s0,.28,0,.42a.15.15,0,0,1-.1.11h-2c-.09,0-.11,0-.11-.12q0-1.65,0-3.3c0-.1,0-.12.13-.12h2c.09,0,.13,0,.13.13s0,.31,0,.47,0,.13-.14.13H12.24c-.13,0-.18,0-.17.17S12.07,12.44,12.07,12.61Z"/><path class="cls-1" d="M8.72,12.61H10v.7H8.94c-.22,0-.22,0-.22.22a3,3,0,0,1,0,.31c0,.15,0,.2.19.2H10c.13,0,.19,0,.18.17a2.24,2.24,0,0,0,0,.39c0,.13,0,.17-.16.17H8c-.09,0-.13,0-.13-.13q0-1.64,0-3.28c0-.1,0-.14.14-.13h2c.11,0,.14,0,.14.15a2.61,2.61,0,0,0,0,.39c0,.15,0,.2-.19.2H8.89c-.13,0-.19,0-.18.17S8.72,12.43,8.72,12.61Z"/><path class="cls-1" d="M44.18,14.76H43.4s-.07-.05-.09-.09-.13-.29-.18-.43a.14.14,0,0,0-.16-.11h-1a.21.21,0,0,0-.14.1,2.84,2.84,0,0,0-.17.4.17.17,0,0,1-.19.14h-.67l.06-.15,1.55-3.31s.07-.08.11-.11a.48.48,0,0,1,.1.11l1.57,3.35ZM42.09,13.5h.73l-.34-.83h0Z"/><path class="cls-1" d="M39.11,11.22H40.4c.16,0,.21.05.2.21a3.15,3.15,0,0,0,0,.39c0,.1,0,.14-.14.14H39.7c-.14,0-.19,0-.19.19,0,.82,0,1.64,0,2.45,0,.13,0,.19-.17.18a4.12,4.12,0,0,0-.48,0c-.12,0-.15,0-.15-.15,0-.82,0-1.65,0-2.47,0-.15,0-.2-.19-.2H37.8c-.1,0-.15,0-.15-.14a3.85,3.85,0,0,0,0-.44c0-.12,0-.15.15-.15Z"/><path class="cls-1" d="M45,14.76V11.23h.74s.06.09.06.14c0,.29,0,.57,0,.86,0,.78,0,1.56,0,2.34,0,.15,0,.2-.19.2S45.16,14.76,45,14.76Z"/></svg>