<svg id="Layer_1" data-name="Layer 1" xmlns="http://www.w3.org/2000/svg" viewBox="0 0 780.96 161.4"><defs><style>.cls-1{fill:#4a4a4a;}</style></defs><title>mamava_logo</title><path class="cls-1" d="M512.21,62.23c13.67-10.81,26.95-11.74,38.52-2.76,6.71,5.21,10.36,12,10.3,20.64-.08,10.33,0,20.66,0,31,0,5-2.31,7.81-6.31,8s-6.83-2.77-6.88-8c-.11-9.83,0-19.66,0-29.49,0-8.29-6.26-14.76-14.22-14.89-8.24-.14-14.7,6.33-14.73,14.85,0,9.83,0,19.66,0,29.49,0,5.36-2.4,8.12-6.69,8.11s-6.65-2.83-6.7-8.16c-.08-10,0-20,0-30a14.36,14.36,0,0,0-14.23-14.29A14,14,0,0,0,476.8,80.8c0,9.83,0,19.66,0,29.49,0,5.78-2.27,8.74-6.55,8.87-4.52.13-7-2.9-7-8.92,0-15.83,0-31.66,0-47.49,0-3.47.07-7.39,3.86-8.33,2.89-.71,6.28.57,9.37,1.63C494,51.42,498.3,52.05,512.21,62.23Z"/><path class="cls-1" d="M288.86,57c12.92-6.55,24.49-4,34.89,5.24,2.95-2,5.54-4.1,8.45-5.6a27.65,27.65,0,0,1,40.7,24.66q.06,14.74,0,29.49c0,5.3-2.39,8.26-6.5,8.32s-6.71-2.84-6.77-8.12c-.1-9.5,0-19,0-28.49,0-9.16-6-15.67-14.36-15.73s-14.48,6.39-14.49,15.5c0,9.33,0,18.66,0,28,0,6-2.48,9.09-7,9-4.32-.13-6.53-3.07-6.55-8.83,0-9.83,0-19.66,0-29.49a14.3,14.3,0,0,0-14.38-14.13,14.11,14.11,0,0,0-14.25,13.74c-.18,10,0,20-.1,30,0,5.93-2.17,8.7-6.56,8.72s-6.66-2.84-6.67-8.61c0-15.83,0-31.66,0-47.48,0-3.62-.14-7.76,4-8.72,2.9-.68,6.29.76,9.46,1.26Z"/><path class="cls-1" d="M624.25,113.34c-14.53,8.32-28.3,8.18-41.07-2.52-11.28-9.44-14.23-26.19-7.47-39.61,6.6-13.09,21.89-20.4,36-17.23,15,3.36,25.68,15.76,26.1,30.67.24,8.31,0,16.64.09,25,0,3.88-.28,7.46-4.73,8.8S626.34,117.2,624.25,113.34ZM605,66.69a19.53,19.53,0,1,0,19.6,19.73A19.7,19.7,0,0,0,605,66.69Z"/><path class="cls-1" d="M436.25,113.37c-21.12,12.54-40,2.27-47.29-10a33,33,0,0,1,38-48.6,32.6,32.6,0,0,1,22.91,29.67c.31,8.14,0,16.3.11,24.45,0,3.93.14,7.9-4.54,9.45S438.38,117.1,436.25,113.37Zm-38.57-26.9A19.47,19.47,0,1,0,436.62,86a19.47,19.47,0,1,0-38.93.48Z"/><path class="cls-1" d="M767.13,113.4c-17.08,8.86-33.05,6.87-43.7-5.14a32.93,32.93,0,0,1,31.88-54.1c14.53,3.43,24.61,15.13,25.41,30.17.44,8.3.1,16.63.19,24.95,0,4-.27,7.82-5,9.16C771.56,119.69,769.17,117,767.13,113.4Zm.24-27.05a19.45,19.45,0,1,0-19.3,19.42A19.55,19.55,0,0,0,767.38,86.34Z"/><path class="cls-1" d="M676.42,119.59c-7.87,0-14.66-4.44-17.29-12-5-14.45-9.79-29-14.55-43.53-1.51-4.61.09-8.3,3.74-9.51,4-1.32,7.34.6,9,5.54q6.74,19.84,13.25,39.76c1,3.11,1.91,6.32,5.94,6.3s5.17-3.13,6.25-6.18q6.68-18.8,13.3-37.63c.17-.47.28-1,.44-1.43,2.05-5.81,5-7.88,9.31-6.56s5.43,5,3.44,10.76c-2.06,6-4.17,11.93-6.28,17.89-2.83,8-5.54,16-8.56,24A18.84,18.84,0,0,1,676.42,119.59Z"/><path class="cls-1" d="M121.06,161.4a66.09,66.09,0,0,0,66.09-66.09H165.08a44,44,0,0,1-88.05,0H55A66.09,66.09,0,0,0,121.06,161.4Z"/><path class="cls-1" d="M66.09,0A66.09,66.09,0,0,0,0,66.09H22.07a44,44,0,1,1,88.05,0h22.07A66.09,66.09,0,0,0,66.09,0Z"/><path class="cls-1" d="M176.19,0A66.09,66.09,0,0,0,110.1,66.09h22.07a44,44,0,1,1,88.05,0h22.07A66.09,66.09,0,0,0,176.19,0Z"/><circle class="cls-1" cx="66.09" cy="65.07" r="15.7"/><circle class="cls-1" cx="176.19" cy="65.07" r="15.7"/></svg>