<svg id="Layer_1" data-name="Layer 1" xmlns="http://www.w3.org/2000/svg" viewBox="0 0 80.75 50"><defs><style>.cls-1{fill:#4a4a4a;}</style></defs><title>mtv_logo</title><path id="_Compound_Path_" data-name="&lt;Compound Path&gt;" class="cls-1" d="M30.24,50H34V43.27l-3.76-3.17Zm9.63-6.51H43l.85-.73V40.12Zm-.3-38.95h0L37.06,7.18,30.26,0l8.63,3.78Zm36.63,14h0V0l4.55,2.73V12.89A57.74,57.74,0,0,0,76.2,18.54Zm4.55,3.69h0V50H76.2V29.68A53.81,53.81,0,0,1,80.75,22.23ZM57,50h0a44.08,44.08,0,0,1-.33-4.64c0-1,.14-4.94.14-8.12,0-2.69-.59-7.46-.59-10.06a34.65,34.65,0,0,0-.06-4.42c1.25-.81,2.33-1.32,5.75-3.4,1.11-.67,3.22-1.8,3.22-3.17,0-.61-.16-1-1-1.72a3,3,0,0,0-2-.62c-1.74,0-2.53,1.75-4,2.64-2.23,1.37-3.42,2-3.87,2.3a4.56,4.56,0,0,0-2.16-.54c-1.27,0-2.77.57-2.77,2.23,0,.76.25,1.59-.77,2.12-.57.36-3.34,2-6.3,3.74-2.49,1.51-3.64,1.38-4.69,2a2.2,2.2,0,0,0-1.22,2,3.07,3.07,0,0,0,.48,1.44,2.73,2.73,0,0,0,2.32,1.32c1.79,0,3.27-1.57,6-3.53,1.72-1.23,3.29-2.5,4.21-2.5s1.4.63,1.4,3.19c0,8.57-.51,9.94-.51,15.88,0,1.08,0,3.05.07,3.88H45.79V35.94l-8.73,7.38-8.74-7.38V50H0V0H27.57l9.49,10L46.55,0H74.26V21.37A68.05,68.05,0,0,0,68.9,32c-.58,1.53-.86,2.64-1.63,2.64s-.93-.84-1-1.6c-.18-1.64-.55-4.71-.71-5.85-.34-2.19-.77-4.5-3.21-4.5a3.44,3.44,0,0,0-3.69,3.71c0,1.53.77,4.19,2.09,7.7l3.7,9.73c.73,1.93,1.75,2.47,3.34,2.47,2,0,2.73-.75,3.56-3.6.71-2.43,1.93-6.4,2.92-8.88h0V50Z"/></svg>