<svg id="Layer_1" data-name="Layer 1" xmlns="http://www.w3.org/2000/svg" viewBox="0 0 50 19.44"><defs><style>.cls-1{fill:#4a4a4a;}</style></defs><title>seventh_gen_logo</title><path class="cls-1" d="M46.52,1.63A1.77,1.77,0,0,1,47,1.55a1.52,1.52,0,0,1,.48.08,0,0,0,0,0,.05,0l.34-.72L47,0l-.87.88.34.72a0,0,0,0,0,0,0"/><path class="cls-1" d="M45.55,2.57a1.78,1.78,0,0,1,.24-.43,1.51,1.51,0,0,1,.36-.32,0,0,0,0,0,0-.06L45.82,1l-1.24.13.15,1.23.77.18a0,0,0,0,0,0,0"/><path class="cls-1" d="M45.69,3.89a1.8,1.8,0,0,1-.19-.46,1.53,1.53,0,0,1,0-.49,0,0,0,0,0,0,0l-.78-.17L44,3.78,45,4.43l.62-.49a0,0,0,0,0,0-.05"/><path class="cls-1" d="M46.82,4.61a1.77,1.77,0,0,1-.48-.14,1.52,1.52,0,0,1-.4-.28,0,0,0,0,0-.06,0l-.62.5.41,1.18,1.17-.42V4.66a0,0,0,0,0,0,0"/><path class="cls-1" d="M48.08,4.2a1.78,1.78,0,0,1-.41.29,1.49,1.49,0,0,1-.47.13,0,0,0,0,0,0,0v.79l1.17.42.4-1.17-.62-.5a0,0,0,0,0-.05,0"/><path class="cls-1" d="M48.53,2.94a1.81,1.81,0,0,1,0,.5,1.5,1.5,0,0,1-.19.45,0,0,0,0,0,0,.06l.62.49L50,3.78l-.67-1-.77.17a0,0,0,0,0,0,0"/><path class="cls-1" d="M47.86,1.81a1.82,1.82,0,0,1,.37.33,1.52,1.52,0,0,1,.24.43,0,0,0,0,0,.05,0l.77-.18.14-1.24L48.2,1l-.35.71a0,0,0,0,0,0,.05"/><path class="cls-1" d="M9.75,8.23A2.1,2.1,0,0,1,12,10.39H7.45a2.17,2.17,0,0,1,2.3-2.16m2.09,4.06a2,2,0,0,1-2,1.15A2.23,2.23,0,0,1,7.45,11v0h5.4v-.24A2.84,2.84,0,0,0,9.77,7.6a3,3,0,0,0-3.18,3.26,2.92,2.92,0,0,0,3.15,3.21,2.81,2.81,0,0,0,3-1.78Z"/><path class="cls-1" d="M23.14,8.23a2.1,2.1,0,0,1,2.23,2.16H20.83a2.17,2.17,0,0,1,2.3-2.16m2.08,4.06a2,2,0,0,1-2,1.15A2.23,2.23,0,0,1,20.83,11v0h5.4v-.24A2.84,2.84,0,0,0,23.15,7.6,3,3,0,0,0,20,10.86a2.92,2.92,0,0,0,3.15,3.21,2.81,2.81,0,0,0,3-1.78Z"/><path class="cls-1" d="M.87,12c0,.85.8,1.46,1.91,1.46S4.71,13,4.71,12.29s-.67-.89-2-1.15C1,10.79.15,10.45.15,9.38s1-1.78,2.5-1.78,2.64.74,2.73,2H4.52c-.05-.83-.74-1.33-1.88-1.33S1,8.67,1,9.29c0,.9.85,1,2.36,1.29s2.21.73,2.21,1.73-1.06,1.77-2.77,1.77S0,13.26,0,12Z"/><polygon class="cls-1" points="13.23 7.76 14.14 7.76 16.46 13.04 18.73 7.76 19.6 7.76 16.89 13.91 15.96 13.91 13.23 7.76"/><path class="cls-1" d="M27.51,7.76h.81v1a2.77,2.77,0,0,1,2.4-1.14,2.6,2.6,0,0,1,2.18.87,2.47,2.47,0,0,1,.3,1.52v3.92h-.84V10.09c0-1.24-.32-1.84-1.8-1.84a2,2,0,0,0-2.2,2.05v3.61h-.84Z"/><path class="cls-1" d="M42.59,16.69h0l1.74,2.61h1.31V15.22H44.57c0,.06,0,2.64,0,2.64a0,0,0,0,1,0,0h0l-1.73-2.66h-1.3v4.09h1.09c0-.06,0-2.6,0-2.6a0,0,0,0,1,0,0"/><rect class="cls-1" x="33.91" y="15.22" width="1.19" height="4.09"/><path class="cls-1" d="M31.84,19.31V16a0,0,0,0,1,0,0h1.38v-.78h-4V16h1.37a0,0,0,0,1,0,0v3.28Z"/><path class="cls-1" d="M5.64,19.31H9.37v-.79H6.86a0,0,0,0,1,0,0V17.6a0,0,0,0,1,0,0H9.08V16.8H6.86a0,0,0,0,1,0,0V16a0,0,0,0,1,0,0H9.29v-.79H5.64Z"/><path class="cls-1" d="M15.66,19.31h3.74v-.79H16.88a0,0,0,0,1,0,0V17.6a0,0,0,0,1,0,0H19.1V16.8H16.88a0,0,0,0,1,0,0V16a0,0,0,0,1,0,0h2.43v-.79H15.66Z"/><path class="cls-1" d="M11.43,16.69a0,0,0,0,1,0,0l1.74,2.61h1.31V15.22H13.42c0,.06,0,2.64,0,2.64a0,0,0,0,1,0,0h0l-1.73-2.66H10.33v4.09h1.09c0-.06,0-2.6,0-2.6a0,0,0,0,1,0,0"/><path class="cls-1" d="M24.12,18.42,23.94,18c-.1-.28-.14-.41-.42-.52a0,0,0,0,1,0,0,0,0,0,0,1,0,0l.13,0,.17-.08h0a1,1,0,0,0,.55-.89c0-.78-.55-1.13-1.78-1.13H20.31v4.09H21.5V17.79a0,0,0,0,1,0,0h.57a.7.7,0,0,1,.78.5c.15.4.26.64.44,1.06h1.21v-.11a3.08,3.08,0,0,1-.41-.79M22.47,17h-.93a0,0,0,0,1,0,0V16a0,0,0,0,1,0,0h1c.49,0,.73.16.73.48S23,17,22.47,17"/><path class="cls-1" d="M28,15.22H26.65l-1.74,4.09h1.23l.27-.74,0,0h1.63l0,0,.29.74h1.28L28,15.22m-.13,2.52H26.73a0,0,0,0,1,0,0l.52-1.44a0,0,0,0,1,0,0l0,0,.55,1.44s0,0,0,0"/><path class="cls-1" d="M38.29,15.11a2.17,2.17,0,1,0,0,4.32,2.18,2.18,0,1,0,0-4.32m0,3.5c-.78,0-1.21-.47-1.21-1.34s.43-1.34,1.21-1.34,1.21.49,1.21,1.34-.43,1.34-1.21,1.34"/><path class="cls-1" d="M38.69,13.16a2.35,2.35,0,0,1-1.3.28c-1,0-1.84-.24-1.93-1.88v-3h3.23V7.94H35.46v-2h-.84v5.35c0,2.66,1.68,2.78,2.73,2.78a3.44,3.44,0,0,0,1.34-.23Z"/><path class="cls-1" d="M40,5.94h.84V8.72a2.82,2.82,0,0,1,2.4-1.11,2.63,2.63,0,0,1,2.16.87,2.84,2.84,0,0,1,.3,1.69v3.75h-.84V10.19c0-1.32-.27-1.94-1.79-1.94a2,2,0,0,0-2.23,2.05v3.61H40Z"/><path class="cls-1" d="M4.79,17.11H2.65v.74h1a0,0,0,0,1,0,0,1,1,0,0,1-1.07.74,1.22,1.22,0,0,1-1.24-1.35A1.25,1.25,0,0,1,2.6,15.88a1,1,0,0,1,1,.54H4.73a1.92,1.92,0,0,0-2.1-1.34A2.22,2.22,0,0,0,.14,17.31a2,2,0,0,0,.68,1.54,2.51,2.51,0,0,0,1.65.58,2.7,2.7,0,0,0,1.45-.32s.06,0,.08,0l.09.2h.7V17.11"/></svg>