<svg id="Logo" xmlns="http://www.w3.org/2000/svg" viewBox="0 0 1076.01 355.39"><defs><style>.cls-1{fill:#4a4a4a;}</style></defs><title>wildfire_logo</title><path class="cls-1" d="M331,132.31a2.48,2.48,0,0,1,2.56-3.41h16.62a2.92,2.92,0,0,1,2.56,2L365,179h.57l22-50a2.71,2.71,0,0,1,2.42-1.56h2.56a2.42,2.42,0,0,1,2.42,1.56l22,50h.57l12.22-48.15a2.92,2.92,0,0,1,2.56-2h16.62a2.48,2.48,0,0,1,2.56,3.41L424.6,227.75a2.73,2.73,0,0,1-2.56,2h-2.27a2.88,2.88,0,0,1-2.41-1.56l-26-58.09h-.43l-25.85,58.09a2.88,2.88,0,0,1-2.41,1.56h-2.27a2.73,2.73,0,0,1-2.56-2Z"/><path class="cls-1" d="M480.83,131.6a2.79,2.79,0,0,1,2.7-2.7h17a2.79,2.79,0,0,1,2.7,2.7v94a2.79,2.79,0,0,1-2.7,2.7h-17a2.79,2.79,0,0,1-2.7-2.7Z"/><path class="cls-1" d="M541.9,131.6a2.7,2.7,0,0,1,2.7-2.7h16.9a2.79,2.79,0,0,1,2.7,2.7v75.84H598a2.7,2.7,0,0,1,2.7,2.7v15.48a2.7,2.7,0,0,1-2.7,2.7H544.6a2.7,2.7,0,0,1-2.7-2.7Z"/><path class="cls-1" d="M628.67,131.6a2.67,2.67,0,0,1,2.56-2.7h34.65c27.41,0,49.85,22.3,49.85,49.57a49.92,49.92,0,0,1-49.85,49.85H631.22a2.67,2.67,0,0,1-2.56-2.7Zm35.79,75.7c16,0,27.7-12.64,27.7-28.83s-11.65-28.69-27.7-28.69H650.82V207.3Z"/><path class="cls-1" d="M747.25,131.6a2.7,2.7,0,0,1,2.7-2.7h58.8a2.7,2.7,0,0,1,2.7,2.7v15.48a2.7,2.7,0,0,1-2.7,2.7H769.4v20.45h32.38a2.79,2.79,0,0,1,2.7,2.7v15.48a2.79,2.79,0,0,1-2.7,2.7H769.4v34.51a2.79,2.79,0,0,1-2.7,2.7H749.94a2.7,2.7,0,0,1-2.7-2.7Z"/><path class="cls-1" d="M841.4,131.6a2.79,2.79,0,0,1,2.7-2.7h17a2.79,2.79,0,0,1,2.7,2.7v94a2.79,2.79,0,0,1-2.7,2.7h-17a2.79,2.79,0,0,1-2.7-2.7Z"/><path class="cls-1" d="M902.46,131.6a2.7,2.7,0,0,1,2.7-2.7h42.47a30.88,30.88,0,0,1,31,30.68c0,13.07-8.66,23.58-21,28.55L977,224.2a2.69,2.69,0,0,1-2.42,4.12H955.72a2.61,2.61,0,0,1-2.27-1.28l-18.89-37.64h-9.8v36.22a2.79,2.79,0,0,1-2.7,2.7h-16.9a2.7,2.7,0,0,1-2.7-2.7Zm43.32,39.77c5.82,0,10.79-5.4,10.79-11.36a10.88,10.88,0,0,0-10.79-10.8h-21v22.16Z"/><path class="cls-1" d="M1011.81,131.6a2.7,2.7,0,0,1,2.7-2.7h58.8a2.7,2.7,0,0,1,2.7,2.7v15.48a2.7,2.7,0,0,1-2.7,2.7H1034v17.61h32.38a2.79,2.79,0,0,1,2.7,2.7v15.48a2.7,2.7,0,0,1-2.7,2.7H1034v19.17h39.34a2.7,2.7,0,0,1,2.7,2.7v15.48a2.7,2.7,0,0,1-2.7,2.7h-58.8a2.7,2.7,0,0,1-2.7-2.7Z"/><path class="cls-1" d="M87.07,355.39a23.35,23.35,0,0,1-10-2.15,22.55,22.55,0,0,1-7.64-5.73c-9.47-7.93-15.31-21-17.82-26.68h0C32.3,277.39,15.37,222.93,6.36,175.16-10,88.27,9.65,76.93,16.12,73.2c15.44-8.9,33.21,2.51,50.06,20.26,6-47,17.48-73.42,37.88-78.12,18.22-4.18,37.33,9.87,60.25,45.69,2-6.91,4.1-13.37,6.17-19.29C182.77,6.57,198.34-.32,209,0c14,.48,24.28,12.55,30.67,35.87,8.95,32.65,11.55,89.17-26.87,173-24.07,52.53-59.49,103.27-90.25,129.28C109,349.63,97.14,355.39,87.07,355.39ZM86.06,158c-1.62,43.51-.75,89.83-.09,125.56.28,14.89.52,27.76.52,37.59a36.48,36.48,0,0,0,.57,7c3.45-3.12,11.6-14,23.31-51.71,6.75-21.74,13.31-47.78,19.72-74.84C115.73,190.78,100.79,176.08,86.06,158Zm66,57.49c-7.63,31.79-14.63,58.47-21.77,79.66,16.07-19,33-44,47.86-71.73C170.09,222.84,161.3,220.14,152,215.54ZM28.16,94.87c-9.88,11.87.07,97.35,33.12,184.67C60.2,218.73,60.36,168,63,127.75,40.7,99.3,30.51,95.4,28.16,94.87Zm129.71,96c14.82,8.47,25.27,9.33,29.69,6.73,5.66-3.32,8.84-19.53-5.57-50.6q-4.88-10.53-9.4-19.73c-3,12.68-6,25.89-9.12,39.32Q160.59,179.16,157.86,190.91ZM88.24,120.24q2.07,2.78,4.07,5.55C108.4,148,123.23,164,136.23,175.25q1.63-7.07,3.25-14.13c5.39-23.47,10.62-46.27,15.84-66.94-32-57.12-45.08-55-45.74-54.86S94.54,43.68,88.24,120.24ZM181.6,90.8q10.76,20.09,22.71,45.88,2.9,6.25,5.13,12.19c11.19-37.25,15.25-74.7,6.54-106.5-3.28-12-6.65-16.19-8-17.46-2.3,1.53-8.34,7.88-14.31,24.94C189.66,61.41,185.64,75.33,181.6,90.8Z"/></svg>